HIERARCHY
ROOT Hips
{
	OFFSET 0.000000 87.230942 0.000000
	CHANNELS 6 Xposition Yposition Zposition Xrotation Yrotation Zrotation
	JOINT Pelvis
	{
		OFFSET 0.000000 0.000000 0.000000
		CHANNELS 3 Xrotation Yrotation Zrotation
		JOINT LeftUpLeg
		{
			OFFSET 12.017000 -9.376404 -2.439400
			CHANNELS 3 Xrotation Yrotation Zrotation
			JOINT LeftLeg
			{
				OFFSET -0.007312 -32.846973 2.110600
				CHANNELS 3 Xrotation Yrotation Zrotation
				JOINT LeftFoot
				{
					OFFSET 0.007312 -32.065170 -0.570400
					CHANNELS 3 Xrotation Yrotation Zrotation
					JOINT LeftToeBase
					{
						OFFSET 0.728300 -11.045900 13.180700
						CHANNELS 3 Xrotation Yrotation Zrotation
						End Site
						{
							OFFSET 0.000000 17.212589 0.000000
						}
					}
				}
				JOINT LeftPantLeg
				{
					OFFSET 0.002788 -16.709013 -3.143600
					CHANNELS 3 Xrotation Yrotation Zrotation
					End Site
					{
						OFFSET -0.605125 24.528742 0.000000
					}
				}
			}
			JOINT Left_Butt
			{
				OFFSET -6.630234 1.326584 -3.183700
				CHANNELS 3 Xrotation Yrotation Zrotation
				End Site
				{
					OFFSET -0.498041 20.188049 0.000000
				}
			}
		}
		JOINT RightUpLeg
		{
			OFFSET -11.717000 -9.376404 -2.439400
			CHANNELS 3 Xrotation Yrotation Zrotation
			JOINT RightLeg
			{
				OFFSET -0.003241 -32.846912 2.110600
				CHANNELS 3 Xrotation Yrotation Zrotation
				JOINT RightFoot
				{
					OFFSET 0.003241 -32.065136 -0.570500
					CHANNELS 3 Xrotation Yrotation Zrotation
					JOINT RightToeBase
					{
						OFFSET -0.728300 -11.045901 13.180700
						CHANNELS 3 Xrotation Yrotation Zrotation
						End Site
						{
							OFFSET 0.000000 17.212593 0.000000
						}
					}
				}
				JOINT RightPantLeg
				{
					OFFSET 0.008142 -16.708982 -3.143700
					CHANNELS 3 Xrotation Yrotation Zrotation
					End Site
					{
						OFFSET 0.605088 24.528715 0.000000
					}
				}
			}
			JOINT Right_Butt
			{
				OFFSET 6.630732 1.326584 -3.183700
				CHANNELS 3 Xrotation Yrotation Zrotation
				End Site
				{
					OFFSET 0.498015 20.188240 0.000000
				}
			}
		}
	}
	JOINT Spine
	{
		OFFSET -0.062400 7.848404 3.918300
		CHANNELS 3 Xrotation Yrotation Zrotation
		JOINT Spine1
		{
			OFFSET -0.072800 11.422302 0.713400
			CHANNELS 3 Xrotation Yrotation Zrotation
			JOINT Spine2
			{
				OFFSET -0.083200 13.054001 -1.931600
				CHANNELS 3 Xrotation Yrotation Zrotation
				JOINT Neck
				{
					OFFSET -0.092200 14.121796 -5.138800
					CHANNELS 3 Xrotation Yrotation Zrotation
					JOINT Head
					{
						OFFSET 0.000200 10.447403 -0.842000
						CHANNELS 3 Xrotation Yrotation Zrotation
						JOINT Visor
						{
							OFFSET 0.457100 25.671204 16.550400
							CHANNELS 3 Xrotation Yrotation Zrotation
							End Site
							{
								OFFSET 0.000000 26.061493 0.000000
							}
						}
						JOINT HairMidA
						{
							OFFSET 0.459400 31.585403 8.437400
							CHANNELS 3 Xrotation Yrotation Zrotation
							End Site
							{
								OFFSET 0.000000 26.061493 0.000000
							}
						}
						JOINT HairMidB
						{
							OFFSET 0.464000 33.309204 -8.389700
							CHANNELS 3 Xrotation Yrotation Zrotation
							End Site
							{
								OFFSET 0.000000 26.061493 0.000000
							}
						}
						JOINT HairMidC
						{
							OFFSET 0.466600 27.991196 -17.375099
							CHANNELS 3 Xrotation Yrotation Zrotation
							End Site
							{
								OFFSET 0.000000 26.061493 0.000000
							}
						}
						JOINT HairMidD
						{
							OFFSET 0.467700 17.888092 -21.169500
							CHANNELS 3 Xrotation Yrotation Zrotation
							End Site
							{
								OFFSET 0.000000 26.061493 0.000000
							}
						}
						JOINT HairMidE
						{
							OFFSET 5.325700 3.514603 -14.369699
							CHANNELS 3 Xrotation Yrotation Zrotation
							End Site
							{
								OFFSET 0.000000 26.061493 0.000000
							}
						}
						JOINT HairMidF
						{
							OFFSET -4.394100 3.514603 -14.372400
							CHANNELS 3 Xrotation Yrotation Zrotation
							End Site
							{
								OFFSET 0.000000 26.061493 0.000000
							}
						}
						JOINT HairLeftA
						{
							OFFSET 15.319900 25.746506 2.623300
							CHANNELS 3 Xrotation Yrotation Zrotation
							End Site
							{
								OFFSET 0.000000 26.061493 0.000000
							}
						}
						JOINT HairLeftB
						{
							OFFSET 12.619500 29.289398 -8.731499
							CHANNELS 3 Xrotation Yrotation Zrotation
							End Site
							{
								OFFSET 0.000000 26.061493 0.000000
							}
						}
						JOINT HairLeftC
						{
							OFFSET 15.714800 15.959900 2.909800
							CHANNELS 3 Xrotation Yrotation Zrotation
							End Site
							{
								OFFSET 0.000000 26.061493 0.000000
							}
						}
						JOINT HairLeftD
						{
							OFFSET 16.101700 18.437408 -7.553200
							CHANNELS 3 Xrotation Yrotation Zrotation
							End Site
							{
								OFFSET 0.000000 26.061493 0.000000
							}
						}
						JOINT HairLeftE
						{
							OFFSET 9.731900 17.915009 -18.316799
							CHANNELS 3 Xrotation Yrotation Zrotation
							End Site
							{
								OFFSET 0.000000 26.061493 0.000000
							}
						}
						JOINT HairLeftF
						{
							OFFSET 11.204300 4.953598 -9.668100
							CHANNELS 3 Xrotation Yrotation Zrotation
							End Site
							{
								OFFSET 0.000000 26.061493 0.000000
							}
						}
						JOINT HairRightA
						{
							OFFSET -14.397900 25.746307 2.615100
							CHANNELS 3 Xrotation Yrotation Zrotation
							End Site
							{
								OFFSET 0.000000 26.061493 0.000000
							}
						}
						JOINT HairRightB
						{
							OFFSET -11.691200 29.289200 -8.738199
							CHANNELS 3 Xrotation Yrotation Zrotation
							End Site
							{
								OFFSET 0.000000 26.061493 0.000000
							}
						}
						JOINT HairRightC
						{
							OFFSET -14.792900 15.959702 2.901400
							CHANNELS 3 Xrotation Yrotation Zrotation
							End Site
							{
								OFFSET 0.000000 26.061493 0.000000
							}
						}
						JOINT HairRightD
						{
							OFFSET -15.174000 18.437195 -7.561900
							CHANNELS 3 Xrotation Yrotation Zrotation
							End Site
							{
								OFFSET 0.000000 26.061493 0.000000
							}
						}
						JOINT HairRightE
						{
							OFFSET -8.798200 17.914902 -18.322001
							CHANNELS 3 Xrotation Yrotation Zrotation
							End Site
							{
								OFFSET 0.000000 26.061493 0.000000
							}
						}
						JOINT HairRightF
						{
							OFFSET -10.275200 4.953506 -9.674099
							CHANNELS 3 Xrotation Yrotation Zrotation
							End Site
							{
								OFFSET 0.000000 26.061493 0.000000
							}
						}
					}
				}
				JOINT LeftShoulder
				{
					OFFSET 5.133500 7.341202 -1.867600
					CHANNELS 3 Xrotation Yrotation Zrotation
					JOINT LeftArm
					{
						OFFSET 8.072663 0.936867 -2.176600
						CHANNELS 3 Xrotation Yrotation Zrotation
						JOINT LeftForeArm
						{
							OFFSET 31.271999 0.000000 0.000000
							CHANNELS 3 Xrotation Yrotation Zrotation
							JOINT LeftHand
							{
								OFFSET 31.771030 0.000000 0.000000
								CHANNELS 3 Xrotation Yrotation Zrotation
								JOINT LeftHandThumb1
								{
									OFFSET 2.886520 -2.557846 4.416640
									CHANNELS 3 Xrotation Yrotation Zrotation
									JOINT LeftHandThumb2
									{
										OFFSET 2.371025 -1.368912 1.368911
										CHANNELS 3 Xrotation Yrotation Zrotation
										JOINT LeftHandThumb3
										{
											OFFSET 2.243378 -1.295212 1.295213
											CHANNELS 3 Xrotation Yrotation Zrotation
											End Site
											{
												OFFSET -0.332611 2.876945 0.020015
											}
										}
									}
								}
								JOINT LeftHandIndex1
								{
									OFFSET 8.568985 -0.641945 3.119977
									CHANNELS 3 Xrotation Yrotation Zrotation
									JOINT LeftHandIndex2
									{
										OFFSET 3.348503 0.000000 0.000000
										CHANNELS 3 Xrotation Yrotation Zrotation
										JOINT LeftHandIndex3
										{
											OFFSET 3.314552 0.000000 0.000000
											CHANNELS 3 Xrotation Yrotation Zrotation
											End Site
											{
												OFFSET -1.032898 3.075485 0.678796
											}
										}
									}
								}
								JOINT LeftHandMiddle1
								{
									OFFSET 8.124603 0.000000 0.000000
									CHANNELS 3 Xrotation Yrotation Zrotation
									JOINT LeftHandMiddle2
									{
										OFFSET 4.166275 0.000000 0.000000
										CHANNELS 3 Xrotation Yrotation Zrotation
										JOINT LeftHandMiddle3
										{
											OFFSET 3.018135 0.000000 0.000000
											CHANNELS 3 Xrotation Yrotation Zrotation
											End Site
											{
												OFFSET -1.032700 2.767982 0.617226
											}
										}
									}
								}
								JOINT LeftHandRing1
								{
									OFFSET 8.571686 -0.031357 -2.884048
									CHANNELS 3 Xrotation Yrotation Zrotation
									JOINT LeftHandRing2
									{
										OFFSET 3.671181 0.000000 0.000000
										CHANNELS 3 Xrotation Yrotation Zrotation
										JOINT LeftHandRing3
										{
											OFFSET 2.728851 0.000000 0.000000
											CHANNELS 3 Xrotation Yrotation Zrotation
											End Site
											{
												OFFSET -0.815796 2.539223 0.577389
											}
										}
									}
								}
								JOINT LeftHandPinky1
								{
									OFFSET 7.854515 -0.675232 -5.213020
									CHANNELS 3 Xrotation Yrotation Zrotation
									JOINT LeftHandPinky2
									{
										OFFSET 3.068596 0.000000 0.000000
										CHANNELS 3 Xrotation Yrotation Zrotation
										JOINT LeftHandPinky3
										{
											OFFSET 2.396042 0.000000 0.000000
											CHANNELS 3 Xrotation Yrotation Zrotation
											End Site
											{
												OFFSET -0.524597 2.267998 0.567429
											}
										}
									}
								}
							}
							JOINT LeftSleeve
							{
								OFFSET 19.684509 -0.200119 0.476146
								CHANNELS 3 Xrotation Yrotation Zrotation
								End Site
								{
									OFFSET -0.031017 25.731133 -0.002868
								}
							}
						}
					}
				}
				JOINT RightShoulder
				{
					OFFSET -4.395900 7.341202 -1.870200
					CHANNELS 3 Xrotation Yrotation Zrotation
					JOINT RightArm
					{
						OFFSET -8.071453 0.936867 -2.181100
						CHANNELS 3 Xrotation Yrotation Zrotation
						JOINT RightForeArm
						{
							OFFSET -31.272011 0.000000 0.000000
							CHANNELS 3 Xrotation Yrotation Zrotation
							JOINT RightHand
							{
								OFFSET -31.771019 0.000000 0.000000
								CHANNELS 3 Xrotation Yrotation Zrotation
								JOINT RightHandThumb1
								{
									OFFSET -2.886520 -2.557808 4.416626
									CHANNELS 3 Xrotation Yrotation Zrotation
									JOINT RightHandThumb2
									{
										OFFSET -2.371056 -1.368927 1.368928
										CHANNELS 3 Xrotation Yrotation Zrotation
										JOINT RightHandThumb3
										{
											OFFSET -2.243362 -1.295204 1.295206
											CHANNELS 3 Xrotation Yrotation Zrotation
											End Site
											{
												OFFSET 0.332642 2.876938 0.020047
											}
										}
									}
								}
								JOINT RightHandIndex1
								{
									OFFSET -8.568993 -0.641953 3.120017
									CHANNELS 3 Xrotation Yrotation Zrotation
									JOINT RightHandIndex2
									{
										OFFSET -3.348518 0.000000 0.000000
										CHANNELS 3 Xrotation Yrotation Zrotation
										JOINT RightHandIndex3
										{
											OFFSET -3.314552 0.000000 0.000000
											CHANNELS 3 Xrotation Yrotation Zrotation
											End Site
											{
												OFFSET 1.032898 3.075478 0.678804
											}
										}
									}
								}
								JOINT RightHandMiddle1
								{
									OFFSET -8.124588 0.000000 0.000000
									CHANNELS 3 Xrotation Yrotation Zrotation
									JOINT RightHandMiddle2
									{
										OFFSET -4.166275 0.000000 0.000000
										CHANNELS 3 Xrotation Yrotation Zrotation
										JOINT RightHandMiddle3
										{
											OFFSET -3.018097 0.000000 0.000000
											CHANNELS 3 Xrotation Yrotation Zrotation
											End Site
											{
												OFFSET 1.032700 2.767937 0.617197
											}
										}
									}
								}
								JOINT RightHandRing1
								{
									OFFSET -8.571747 -0.031349 -2.884061
									CHANNELS 3 Xrotation Yrotation Zrotation
									JOINT RightHandRing2
									{
										OFFSET -3.671204 0.000000 0.000000
										CHANNELS 3 Xrotation Yrotation Zrotation
										JOINT RightHandRing3
										{
											OFFSET -2.728874 0.000000 0.000000
											CHANNELS 3 Xrotation Yrotation Zrotation
											End Site
											{
												OFFSET 0.815804 2.539261 0.577413
											}
										}
									}
								}
								JOINT RightHandPinky1
								{
									OFFSET -7.854561 -0.675247 -5.212970
									CHANNELS 3 Xrotation Yrotation Zrotation
									JOINT RightHandPinky2
									{
										OFFSET -3.068550 0.000000 0.000000
										CHANNELS 3 Xrotation Yrotation Zrotation
										JOINT RightHandPinky3
										{
											OFFSET -2.395981 0.000000 0.000000
											CHANNELS 3 Xrotation Yrotation Zrotation
											End Site
											{
												OFFSET 0.524605 2.267952 0.567413
											}
										}
									}
								}
							}
							JOINT RightSleeve
							{
								OFFSET -19.684753 -0.200165 0.476065
								CHANNELS 3 Xrotation Yrotation Zrotation
								End Site
								{
									OFFSET 0.031342 25.731255 -0.002917
								}
							}
						}
					}
				}
				JOINT Hood
				{
					OFFSET 0.369700 14.447800 -5.317800
					CHANNELS 3 Xrotation Yrotation Zrotation
					JOINT Hood1
					{
						OFFSET 0.001700 -5.553802 -5.895100
						CHANNELS 3 Xrotation Yrotation Zrotation
						JOINT Hood2
						{
							OFFSET -0.000200 -8.380501 0.763600
							CHANNELS 3 Xrotation Yrotation Zrotation
							End Site
							{
								OFFSET 0.000000 8.415215 0.000000
							}
						}
					}
				}
				JOINT Left_Breast
				{
					OFFSET 5.682500 3.120102 3.188800
					CHANNELS 3 Xrotation Yrotation Zrotation
					End Site
					{
						OFFSET 0.000000 10.528564 0.000000
					}
				}
				JOINT Right_Breast
				{
					OFFSET -4.947600 3.120102 3.185900
					CHANNELS 3 Xrotation Yrotation Zrotation
					End Site
					{
						OFFSET 0.000000 10.528564 0.000000
					}
				}
				JOINT Whistle
				{
					OFFSET 0.368200 11.471298 0.095400
					CHANNELS 3 Xrotation Yrotation Zrotation
					JOINT Whistle1
					{
						OFFSET -0.002000 -6.349899 7.479800
						CHANNELS 3 Xrotation Yrotation Zrotation
						JOINT Whistle2
						{
							OFFSET -0.001300 -8.217598 4.717600
							CHANNELS 3 Xrotation Yrotation Zrotation
							End Site
							{
								OFFSET 0.000000 9.475479 0.000000
							}
						}
					}
				}
			}
		}
		JOINT Belly
		{
			OFFSET 0.212400 1.593002 3.163700
			CHANNELS 3 Xrotation Yrotation Zrotation
			End Site
			{
				OFFSET 0.000000 7.496635 0.000000
			}
		}
	}
	JOINT FitGrandmaFacialAnim_Joint
	{
		OFFSET 1.150000 -86.211197 -1.220100
		CHANNELS 3 Xrotation Yrotation Zrotation
		End Site
		{
			OFFSET 0.000000 31.666618 0.000000
		}
	}
}
MOTION
Frames: 4
Frame Time: 0.016667
12.902324 76.234268 58.627144 -196.520429 47.355177 185.870703 -0.000000 -0.000002 -0.000000 -49.300606 -6.228727 21.068583 29.053996 -43.893685 3.694245 -2.583041 -0.939383 -18.638261 -0.000000 0.000000 -0.000000 0.000000 0.000001 -0.000000 -0.000001 0.000003 -0.000001 -25.726703 -28.388387 -22.400237 47.382306 -8.357589 6.428346 -24.449205 -5.849918 18.689225 0.000000 -0.000001 0.000000 -0.000004 0.000001 0.000004 0.000001 0.000000 -0.000000 12.738044 3.657003 -3.226438 11.924115 11.118069 -15.175190 1.101636 14.665745 -10.905803 10.816981 7.709375 8.813434 -10.499621 11.214110 -3.938369 -0.000001 0.000000 -0.000000 -0.000001 0.000000 -0.000000 -0.000001 0.000000 -0.000000 -0.000001 0.000000 -0.000000 -0.000001 0.000000 -0.000000 -0.000001 0.000000 -0.000000 -0.000001 0.000000 -0.000000 -0.000001 0.000000 -0.000000 -0.000001 0.000000 -0.000000 -0.000001 0.000000 -0.000000 -0.000001 0.000000 -0.000000 -0.000001 0.000000 -0.000000 -0.000001 0.000000 -0.000000 -0.000001 0.000000 -0.000000 -0.000001 0.000000 -0.000000 -0.000001 0.000000 -0.000000 -0.000001 0.000000 -0.000000 -0.000001 0.000000 -0.000000 -0.000001 0.000000 -0.000000 0.441618 12.913608 -8.023903 24.289876 30.045172 -67.066638 -59.876642 -28.113467 -29.309540 -3.278536 20.437929 28.775584 14.303301 -13.828691 17.477161 -1.153284 11.257900 -8.413997 0.000000 0.000004 -0.000000 -1.170661 -7.739202 -1.295038 -0.043942 -0.937983 -21.136828 0.000001 0.000001 0.000001 1.351894 3.178799 -22.421074 0.508238 -1.065585 -16.741333 0.000001 -0.000002 0.000002 1.727806 5.794791 -31.799151 -0.855261 -0.880745 -22.637701 -0.000000 0.000000 0.000001 1.357503 4.983797 -40.153152 -1.028406 -0.556616 -20.486633 -0.000004 -0.000001 -0.000004 0.000000 -0.000000 -0.000001 1.205992 17.292716 2.836859 -64.233373 30.995576 72.958073 51.591117 12.758244 4.090931 2.838917 31.571829 -10.829787 55.149560 18.649531 -29.698267 -0.442583 -14.180526 7.313128 -0.000002 -0.000001 -0.000001 5.673363 7.585034 36.844188 1.050493 3.824467 68.900244 0.000000 -0.000000 -0.000000 -0.125694 1.886114 45.000776 -1.169017 3.204651 68.417636 0.000001 0.000000 -0.000001 -5.312004 1.216638 58.508835 -0.745214 1.667578 48.011288 -0.000003 -0.000001 0.000001 -7.756834 -9.376471 47.264018 -0.526034 1.541571 45.600522 -0.000001 -0.000001 0.000001 -0.000000 -0.000000 -0.000001 -0.000000 0.000000 -0.000000 -0.000000 0.000000 -0.000000 -0.000000 0.000000 -0.000000 -0.000000 0.000000 -0.000000 -0.000000 0.000000 -0.000000 -0.000001 0.000000 -0.000000 0.000001 -0.000000 -0.000000 0.000001 -0.000000 -0.000000 0.000001 -0.000000 -0.000001 -0.000000 -0.000002 -0.000000 
12.760262 76.388885 58.461113 -196.897265 49.616178 186.579827 0.000000 -0.000000 0.000000 -48.679062 -6.043509 21.862269 30.361697 -42.349338 3.729847 -3.547348 -0.638514 -18.046395 -0.000000 -0.000000 -0.000000 0.000000 -0.000000 0.000000 0.000002 -0.000000 -0.000003 -26.546101 -27.992142 -23.175855 46.693140 -6.227142 6.635542 -23.778793 -5.464515 17.538826 -0.000000 -0.000000 -0.000000 0.000000 -0.000001 -0.000000 0.000002 -0.000000 0.000003 12.600260 3.592771 -3.207971 11.663240 11.031786 -15.073985 0.830128 14.573231 -10.818439 11.049070 7.758147 8.929907 -10.080377 11.211615 -3.802283 0.000001 -0.000000 -0.000000 0.000001 -0.000000 -0.000000 0.000001 -0.000000 -0.000000 0.000001 -0.000000 -0.000000 0.000001 -0.000000 -0.000000 0.000001 -0.000000 -0.000000 0.000001 -0.000000 -0.000000 0.000001 -0.000000 -0.000000 0.000001 -0.000000 -0.000000 0.000001 -0.000000 -0.000000 0.000001 -0.000000 -0.000000 0.000001 -0.000000 -0.000000 0.000001 -0.000000 -0.000000 0.000001 -0.000000 -0.000000 0.000001 -0.000000 -0.000000 0.000001 -0.000000 -0.000000 0.000001 -0.000000 -0.000000 0.000001 -0.000000 -0.000000 0.000001 -0.000000 -0.000000 0.560202 12.569473 -8.809945 21.591068 29.149622 -64.927218 -59.006974 -28.841710 -29.005341 -2.755777 20.006124 26.728931 15.094011 -13.012303 16.727410 -1.153510 11.258021 -8.413064 0.000003 0.000003 -0.000001 -1.291513 -7.470758 -5.110723 -0.002012 -0.823196 -18.506075 -0.000001 -0.000002 -0.000005 1.303968 3.063944 -24.663248 0.471296 -1.179157 -19.128396 -0.000001 -0.000003 0.000003 1.653451 5.671085 -34.035782 -0.906815 -0.998996 -25.024316 0.000003 0.000000 -0.000003 1.279391 4.888731 -42.390951 -1.078344 -0.681013 -22.872758 -0.000005 -0.000002 0.000002 0.000001 -0.000001 0.000002 1.220478 16.569692 3.011179 -64.817874 30.100012 76.400884 53.142953 8.465476 3.719462 2.148548 35.073377 -9.633447 55.149563 18.649528 -29.698267 -0.442583 -14.180526 7.313133 -0.000001 0.000001 -0.000001 5.673367 7.585037 36.844185 1.050490 3.824467 68.900237 -0.000002 0.000000 0.000003 -0.125691 1.886116 45.000773 -1.169014 3.204654 68.417636 -0.000005 0.000000 -0.000001 -5.312002 1.216641 58.508842 -0.745213 1.667578 48.011292 0.000003 -0.000001 -0.000001 -7.756831 -9.376472 47.264014 -0.526031 1.541572 45.600525 -0.000003 -0.000000 0.000001 -0.000001 -0.000000 0.000001 0.000000 0.000000 -0.000000 0.000000 0.000000 -0.000000 0.000000 0.000000 -0.000000 0.000000 0.000000 -0.000000 0.000000 0.000000 -0.000000 0.000000 0.000000 0.000000 0.000000 0.000000 -0.000000 0.000000 0.000000 -0.000000 -0.000000 -0.000000 0.000000 0.000000 -0.000000 0.000000 
12.591148 76.479271 58.280716 -197.453488 51.968106 187.424079 -0.000000 -0.000000 -0.000001 -48.172822 -5.996530 22.600249 32.009231 -40.647610 3.869018 -4.688267 -0.291449 -17.479082 -0.000000 0.000000 -0.000000 -0.000000 0.000001 0.000000 -0.000004 -0.000002 -0.000000 -27.555326 -27.480906 -23.917128 46.182556 -4.274950 6.807670 -23.072343 -4.933731 16.526703 -0.000000 0.000000 -0.000000 0.000000 -0.000001 0.000001 0.000001 0.000000 -0.000001 12.424980 3.502653 -3.188704 11.349580 10.896045 -14.949136 0.503254 14.434859 -10.712578 11.312805 7.850707 9.045671 -9.601179 11.292454 -3.805254 0.000001 -0.000000 0.000000 0.000001 -0.000000 0.000000 0.000001 -0.000000 0.000000 0.000001 -0.000000 0.000000 0.000001 -0.000000 0.000000 0.000001 -0.000000 0.000000 0.000001 -0.000000 0.000000 0.000001 -0.000000 0.000000 0.000001 -0.000000 0.000000 0.000001 -0.000000 0.000000 0.000001 -0.000000 0.000000 0.000001 -0.000000 0.000000 0.000001 -0.000000 0.000000 0.000001 -0.000000 0.000000 0.000001 -0.000000 0.000000 0.000001 -0.000000 0.000000 0.000001 -0.000000 0.000000 0.000001 -0.000000 0.000000 0.000001 -0.000000 0.000000 0.690153 12.814772 -9.700472 17.839887 28.067231 -61.512035 -57.352204 -29.386892 -29.329526 -2.509839 19.581736 26.010323 15.852517 -12.226276 15.981159 -1.153656 11.258094 -8.412005 0.000003 0.000005 -0.000001 -1.364778 -7.206523 -8.793121 0.033247 -0.710962 -15.958042 0.000005 -0.000003 0.000002 1.253974 2.954655 -26.823603 0.431633 -1.287417 -21.434329 -0.000002 0.000000 0.000000 1.578067 5.553429 -36.190553 -0.962019 -1.110679 -27.329904 0.000001 0.000001 -0.000001 1.200968 4.799976 -44.547020 -1.129973 -0.799930 -25.177739 0.000004 -0.000001 0.000001 0.000002 -0.000001 -0.000002 1.222240 16.439874 2.931224 -60.208281 28.479555 76.380803 52.535428 10.352231 -2.661527 -0.725323 34.527798 -2.792966 55.149563 18.649531 -29.698264 -0.442582 -14.180526 7.313131 0.000001 -0.000000 -0.000000 5.673364 7.585033 36.844188 1.050490 3.824464 68.900237 0.000002 0.000000 0.000001 -0.125689 1.886115 45.000776 -1.169015 3.204656 68.417636 -0.000001 0.000002 -0.000001 -5.312001 1.216642 58.508835 -0.745212 1.667573 48.011285 -0.000001 -0.000001 -0.000001 -7.756830 -9.376477 47.264011 -0.526033 1.541573 45.600518 0.000001 -0.000002 0.000000 -0.000002 -0.000000 -0.000000 0.000001 0.000001 0.000000 0.000001 0.000001 0.000000 0.000001 0.000001 0.000000 0.000001 0.000001 0.000000 0.000001 0.000001 0.000000 0.000001 0.000001 0.000000 0.000002 0.000001 -0.000000 0.000002 0.000001 -0.000000 0.000002 -0.000000 0.000001 -0.000000 -0.000000 -0.000001 
12.453678 76.533554 58.023006 -198.304707 54.555258 188.533684 0.000001 0.000001 -0.000000 -47.805621 -5.850368 23.526189 33.925966 -38.942873 3.767312 -6.032928 0.054682 -16.692550 -0.000000 -0.000001 -0.000000 -0.000001 0.000001 0.000003 0.000000 -0.000001 0.000000 -28.564129 -26.584126 -24.422433 45.649904 -2.327020 6.914215 -22.269791 -4.618638 15.621218 0.000000 0.000000 -0.000000 0.000002 -0.000002 -0.000002 0.000005 0.000000 0.000001 12.218510 3.395916 -3.196029 10.965556 10.728926 -14.870416 0.112396 14.271529 -10.661714 11.492983 7.964784 9.125452 -9.194655 11.332438 -3.605141 -0.000002 -0.000000 -0.000000 -0.000002 -0.000000 -0.000000 -0.000002 -0.000000 -0.000000 -0.000002 -0.000000 -0.000000 -0.000002 -0.000000 -0.000000 -0.000002 -0.000000 -0.000000 -0.000002 -0.000000 -0.000000 -0.000002 -0.000000 -0.000000 -0.000002 -0.000000 -0.000000 -0.000002 -0.000000 -0.000000 -0.000002 -0.000000 -0.000000 -0.000002 -0.000000 -0.000000 -0.000002 -0.000000 -0.000000 -0.000002 -0.000000 -0.000000 -0.000002 -0.000000 -0.000000 -0.000002 -0.000000 -0.000000 -0.000002 -0.000000 -0.000000 -0.000002 -0.000000 -0.000000 -0.000002 -0.000000 -0.000000 0.813238 12.488584 -10.557387 13.645981 26.593007 -57.689157 -53.947061 -30.883797 -28.900829 -2.216753 18.855335 25.368735 16.555672 -11.495720 15.265828 -1.153767 11.258138 -8.410814 0.000001 0.000001 -0.000002 -1.394206 -6.959279 -12.216294 0.061283 -0.605640 -13.575350 -0.000000 -0.000003 0.000002 1.204419 2.854558 -28.821704 0.391323 -1.386583 -23.578616 -0.000005 0.000000 0.000000 1.504881 5.445193 -38.183380 -1.018057 -1.212259 -29.473987 0.000003 0.000000 -0.000001 1.125885 4.720277 -46.541158 -1.183271 -0.908403 -27.321248 0.000001 -0.000002 0.000001 0.000001 -0.000003 0.000002 1.273181 15.702841 2.792935 -54.445654 25.923063 69.909862 52.735942 24.416338 -3.568418 -2.348696 28.229729 0.359077 55.149563 18.649531 -29.698260 -0.442581 -14.180525 7.313126 -0.000001 0.000003 0.000001 5.673360 7.585034 36.844188 1.050491 3.824474 68.900237 0.000001 -0.000002 0.000001 -0.125693 1.886113 45.000773 -1.169015 3.204653 68.417636 -0.000002 0.000001 -0.000001 -5.312006 1.216635 58.508842 -0.745210 1.667577 48.011288 -0.000003 0.000000 0.000003 -7.756837 -9.376477 47.264011 -0.526034 1.541571 45.600522 -0.000003 0.000000 -0.000000 -0.000001 -0.000000 -0.000003 0.000003 0.000000 0.000000 0.000003 0.000000 0.000000 0.000003 0.000000 0.000000 0.000003 0.000000 0.000000 0.000003 0.000000 0.000000 0.000003 -0.000000 0.000000 0.000001 -0.000001 0.000001 0.000001 -0.000001 0.000001 -0.000001 -0.000001 -0.000000 0.000001 0.000001 -0.000000 
